<svg fill="white" height="512" viewBox="0 0 511.915 511.915" width="512" xmlns="http://www.w3.org/2000/svg">
    <g>

            <path d="m463.635 176.865-62.276-74.614 5.439-11.233 34.251-16.584c7.466-3.521 7.464-14.483 0-18.002l-34.25-16.583-16.583-34.25c-3.52-7.467-14.483-7.464-18.001 0l-16.583 34.25-34.25 16.583c-3.586 1.734-5.891 5.532-5.605 9.525h-170.25c-2.965 0-5.777 1.315-7.677 3.592l-89.57 107.316c-3.034 3.636-3.103 8.901-.164 12.614l62.163 78.538-8.224 16.985-34.706 16.804c-7.466 3.521-7.464 14.483 0 18.002l34.705 16.804 16.804 34.705c3.52 7.466 14.483 7.463 18.001-.001l16.803-34.704 7.887-3.819 86.567 109.37c3.76 5.006 11.923 5.006 15.683 0l200-252.685c2.939-3.712 2.87-8.977-.164-12.613zm-174.054 145.179c-5.29-1.591-10.865 1.415-12.452 6.705l-21.172 70.574-61.814-206.051h123.629l-14.776 49.256c-1.587 5.289 1.415 10.864 6.705 12.451 5.146 1.589 10.88-1.368 12.452-6.705l16.5-55.002h96.637l-155.62 196.614 16.617-55.391c1.586-5.289-1.416-10.864-6.706-12.451zm-.099-236.086 27.622 87.315h-122.293l27.622-87.315zm145.104 87.315h-96.505l-27.622-87.315h34.721l10.45 5.06 16.583 34.25c3.52 7.467 14.483 7.464 18.001 0l1.58-3.263zm-67.112-116.937c2.026-.981 3.662-2.617 4.643-4.644l9.097-18.789 9.098 18.789c.981 2.026 2.617 3.662 4.643 4.644l18.79 9.097-18.79 9.098c-2.026.981-3.662 2.617-4.643 4.643l-9.097 18.789-9.098-18.789c-.981-2.026-2.617-3.662-4.643-4.644l-18.789-9.097zm-217.268 29.622h51.25l-27.622 87.315h-96.505zm-8.387 234.167c-2.026.981-3.662 2.617-4.643 4.644l-9.317 19.243-9.318-19.244c-.981-2.025-2.617-3.661-4.643-4.643l-19.244-9.317 19.245-9.317c2.026-.981 3.662-2.617 4.643-4.644l9.317-19.243 9.318 19.244c.981 2.026 2.617 3.662 4.643 4.644l19.244 9.316zm46.549-18.319-34.705-16.803-16.804-34.705c-3-6.495-12.27-7.582-16.687-2.007l-43.546-55.018h96.637l58.983 196.614-52.257-66.022 8.379-4.057c7.466-3.521 7.463-14.483 0-18.002z" />
            <path d="m434.621 436.806-34.705-16.803-16.804-34.705c-3.52-7.467-14.482-7.464-18.001-.001l-16.804 34.705-34.705 16.804c-7.466 3.521-7.464 14.483 0 18.002l34.705 16.804 16.804 34.705c3.52 7.466 14.483 7.463 18.001-.001l16.803-34.704 34.706-16.804c7.467-3.521 7.464-14.483 0-18.002zm-46.549 18.319c-2.026.981-3.662 2.617-4.643 4.644l-9.317 19.243-9.318-19.244c-.981-2.025-2.617-3.661-4.643-4.643l-19.244-9.317 19.244-9.317c2.026-.981 3.662-2.617 4.643-4.643l9.318-19.244 9.318 19.244c.981 2.026 2.617 3.662 4.643 4.644l19.244 9.316z" />
            <path d="m309.641 288.511c0-5.522-4.477-10-10-10h-.007c-5.523 0-9.996 4.478-9.996 10 .528 13.264 19.479 13.262 20.003 0z" />
        </g>

</svg>