<svg version="1.0" xmlns="http://www.w3.org/2000/svg"
 width="512.000000pt" height="512.000000pt" viewBox="0 0 512.000000 512.000000"
 preserveAspectRatio="xMidYMid meet">

<g transform="translate(0.000000,512.000000) scale(0.100000,-0.100000)"
fill="#000000" stroke="none">
<path d="M4314 5110 c-72 -13 -173 -51 -241 -91 -45 -26 -460 -435 -1774
-1749 -1481 -1481 -1720 -1723 -1747 -1775 -42 -83 -552 -1388 -552 -1415 0
-28 52 -80 80 -80 26 0 1333 510 1415 552 52 27 296 267 1775 1747 1863 1863
1761 1755 1817 1926 33 103 38 273 10 375 -65 242 -253 431 -492 495 -73 20
-221 27 -291 15z m271 -191 c218 -70 358 -263 357 -493 0 -163 -53 -276 -193
-413 l-74 -73 -368 368 -368 368 88 85 c48 47 108 98 133 112 130 75 283 92
425 46z m-95 -1164 l-60 -60 -367 367 -368 368 60 60 60 60 367 -367 368 -368
-60 -60z m-550 180 l365 -365 -183 -182 -182 -183 -367 367 -368 368 180 180
c99 99 182 180 185 180 3 0 169 -164 370 -365z m-1162 -1892 l-1041 -1041 -31
23 c-56 41 -119 67 -177 72 l-56 6 -6 53 c-17 160 -147 292 -308 310 l-56 6
-6 57 c-5 58 -37 135 -75 181 l-21 25 1042 1042 1042 1043 367 -367 368 -368
-1042 -1042z m-1865 -474 c27 -51 19 -124 -21 -186 -39 -61 -41 -101 -7 -133
34 -32 73 -30 129 7 57 38 103 47 158 33 80 -22 139 -113 124 -193 -3 -19 -21
-56 -38 -82 -37 -56 -40 -96 -8 -130 33 -35 73 -32 140 10 40 26 65 35 97 35
47 0 106 -20 119 -41 10 -16 -140 -161 -198 -190 -45 -23 -650 -261 -652 -257
-1 2 -13 28 -26 58 -34 74 -156 196 -230 230 -30 13 -56 25 -58 26 -4 2 234
607 257 652 24 48 169 204 185 199 6 -2 19 -19 29 -38z m-473 -1000 c69 -41
150 -138 150 -179 0 -11 -49 -35 -172 -83 -94 -37 -173 -65 -175 -64 -1 2 27
81 64 175 47 120 72 172 83 172 8 0 31 -10 50 -21z"/>
<path d="M2991 3476 c-59 -63 -68 -107 -28 -143 46 -42 86 -36 146 20 84 80
68 176 -30 177 -31 0 -44 -8 -88 -54z"/>
<path d="M2750 3223 c-8 -3 -340 -330 -737 -727 -701 -699 -723 -722 -723
-758 0 -65 61 -104 116 -75 16 9 350 337 742 729 671 673 712 716 712 748 -1
63 -54 103 -110 83z"/>
</g>
</svg>
