<svg xmlns="http://www.w3.org/2000/svg" width="682.667" height="682.667" version="1.0" viewBox="0 0 512 512"><path d="M237 .7c-37.9 3.6-66.1 11.6-98 27.8C99.1 48.8 62.6 82.6 38 122 20.1 150.6 7.1 187.5 1.8 224.5c-1.7 11.8-1.7 51.2 0 63 4.2 29.5 12 55.3 24.2 80 13.7 28 27.2 46.8 49.4 69.1 22.1 22 41.2 35.7 68.1 48.9 18.8 9.2 30.9 13.7 50 18.5 50 12.6 100.2 10.2 149-7.1 15-5.3 40.8-18.3 54-27.1 56-37.4 95.2-94.2 109.5-158.8 3.3-15 5-29.1 5.7-46.5 1.5-42.6-7.3-83.2-26.3-121.4-12.4-25-26.3-44.7-45.8-64.8-21.4-22.2-43-37.9-71.1-51.8C338.9 11.9 311.3 4 278.5 1 268.3.1 245.2-.1 237 .7zm54.5 34.2c63.4 10.7 117.1 45.7 152.3 99.5 17 25.8 28.6 56.3 33.9 89.1 2.4 15.3 2.4 49.7 0 65-10.8 66.8-47.4 122.2-104.2 158-24.3 15.3-53.7 26.1-85 31.2-15.4 2.4-49.7 2.4-65-.1C157.8 466.9 103.7 432 67.8 377c-16.8-25.7-28.1-55.7-33.5-88.5-2.4-15.3-2.4-49.7 0-65 8.1-49.7 29.1-91.2 63.6-125.5 38.2-38.1 86.2-60.5 140.1-65.4 10.8-1 41.8.4 53.5 2.3z"/><path d="M248 103.2c-1.8 1.3-4.3 3.6-5.4 5.1-2.1 2.8-2.1 3.7-2.4 67.3L240 240l-64.4.2c-63.6.3-64.5.3-67.3 2.4-9.8 7.3-9.8 19.5 0 26.8 2.8 2.1 3.7 2.1 67.3 2.4l64.4.2.2 64.4c.3 63.6.3 64.5 2.4 67.3 3.5 4.8 8.2 7.3 13.4 7.3 5.2 0 9.9-2.5 13.4-7.3 2.1-2.8 2.1-3.7 2.4-67.3l.2-64.4 64.4-.2c63.6-.3 64.5-.3 67.3-2.4 9.8-7.3 9.8-19.5 0-26.8-2.8-2.1-3.7-2.1-67.3-2.4L272 240l-.2-64.4c-.3-63.6-.3-64.5-2.4-67.3-3.5-4.8-8.2-7.3-13.4-7.3-3.2 0-5.7.7-8 2.2z"/></svg>