<svg width="24" height="24" viewBox="0 0 24 24">
    <path fill-rule="evenodd"
        d="M11 4C7.13401 4 4 7.13401 4 11C4 14.866 7.13401 18 11 18C12.8867 18 14.5991 17.2535 15.858 16.0399C15.884 16.0062 15.9124 15.9738 15.9433 15.9429C15.9741 15.9121 16.0065 15.8836 16.0402 15.8577C17.2537 14.5988 18 12.8866 18 11C18 7.13401 14.866 4 11 4ZM18.0321 16.6175C19.2636 15.0778 20 13.1249 20 11C20 6.02944 15.9706 2 11 2C6.02944 2 2 6.02944 2 11C2 15.9706 6.02944 20 11 20C13.1251 20 15.0782 19.2635 16.6179 18.0317L20.2933 21.7071C20.6838 22.0977 21.317 22.0977 21.7075 21.7071C22.098 21.3166 22.098 20.6834 21.7075 20.2929L18.0321 16.6175Z"
    />
</svg>