<svg version="1.0" xmlns="http://www.w3.org/2000/svg"
 width="481.000000pt" height="138.000000pt" viewBox="0 0 481.000000 138.000000"
 preserveAspectRatio="xMidYMid meet">

<g transform="translate(0.000000,138.000000) scale(0.100000,-0.100000)"
fill="#000000" stroke="none">
<path d="M2165 1363 c-691 -58 -1323 -308 -1855 -732 -52 -42 -136 -116 -186
-166 -81 -80 -93 -96 -104 -143 -36 -152 84 -302 241 -302 80 0 112 16 212
107 449 410 983 657 1597 739 153 21 498 23 650 5 395 -47 782 -174 1115 -366
200 -116 336 -215 521 -381 97 -87 132 -104 214 -104 146 1 274 171 230 306
-19 57 -53 99 -154 191 -346 311 -753 544 -1206 691 -245 79 -480 127 -745
152 -101 9 -434 11 -530 3z"/>
</g>
</svg>
