<svg version="1.0" xmlns="http://www.w3.org/2000/svg"
 width="356.000000pt" height="113.000000pt" viewBox="0 0 356.000000 113.000000"
 preserveAspectRatio="xMidYMid meet">

<g transform="translate(0.000000,113.000000) scale(0.100000,-0.100000)"
fill="#000000" stroke="none">
<path d="M1575 1110 c-384 -39 -734 -153 -1050 -343 -115 -70 -171 -110 -310
-223 -176 -144 -205 -186 -205 -291 0 -73 25 -127 80 -176 55 -50 96 -67 165
-67 77 0 111 17 202 101 484 450 1170 624 1810 459 308 -80 587 -231 828 -450
103 -93 148 -114 230 -108 131 11 227 117 226 249 0 79 -23 119 -120 212 -334
319 -835 555 -1321 622 -141 19 -413 27 -535 15z"/>
</g>
</svg>
