<svg version="1.0" xmlns="http://www.w3.org/2000/svg"
 width="232.000000pt" height="89.000000pt" viewBox="0 0 232.000000 89.000000"
 preserveAspectRatio="xMidYMid meet">

<g transform="translate(0.000000,89.000000) scale(0.100000,-0.100000)"
fill="#000000" stroke="none">
<path d="M915 864 c-304 -56 -546 -173 -769 -370 -107 -94 -136 -143 -136
-224 0 -135 111 -250 241 -250 77 0 117 19 199 94 134 124 285 206 460 254 83
22 114 25 250 25 134 0 168 -3 252 -26 172 -46 340 -138 468 -258 67 -64 120
-89 185 -89 132 0 245 115 245 250 0 74 -25 124 -96 191 -209 197 -452 326
-739 391 -122 27 -442 34 -560 12z"/>
</g>
</svg>
